<svg width="237" height="67" viewBox="0 0 237 67" fill="none" xmlns="http://www.w3.org/2000/svg">
<rect width="237" height="67" fill="#F4F4F4"/>
<path d="M92.072 45.264C92.12 45.384 92.144 45.564 92.144 45.804C92.144 46.02 92.144 46.2 92.144 46.344C92.144 46.536 92.108 46.716 92.036 46.884C91.964 47.052 91.868 47.208 91.748 47.352C91.532 47.64 91.22 47.856 90.812 48C90.236 48.192 89.696 48.288 89.192 48.288C88.928 48.312 88.652 48.324 88.364 48.324C88.076 48.324 87.788 48.348 87.5 48.396H87.356C85.508 48.42 83.6 48.42 81.632 48.396C81.152 48.372 80.612 48.372 80.012 48.396C79.412 48.444 78.824 48.432 78.248 48.36C77.672 48.312 77.144 48.18 76.664 47.964C76.208 47.724 75.884 47.352 75.692 46.848C75.644 46.728 75.608 46.62 75.584 46.524C75.56 46.404 75.548 46.284 75.548 46.164C75.452 45.348 75.416 44.544 75.44 43.752C75.464 42.96 75.476 42.18 75.476 41.412L75.548 36.192V31.368C75.548 30.504 75.548 29.736 75.548 29.064C75.572 28.392 75.596 27.648 75.62 26.832V26.652C75.644 26.412 75.656 26.172 75.656 25.932C75.68 25.692 75.692 25.452 75.692 25.212C75.74 24.66 75.872 24.192 76.088 23.808C76.232 23.448 76.484 23.16 76.844 22.944C77.156 22.728 77.528 22.62 77.96 22.62C78.128 22.62 78.284 22.632 78.428 22.656C78.596 22.656 78.752 22.668 78.896 22.692C79.04 22.716 79.172 22.764 79.292 22.836C79.436 22.908 79.58 23.004 79.724 23.124C79.868 23.292 80 23.496 80.12 23.736C80.216 24 80.276 24.264 80.3 24.528C80.324 24.696 80.348 24.852 80.372 24.996C80.396 25.14 80.408 25.284 80.408 25.428C80.36 25.572 80.336 25.716 80.336 25.86C80.336 26.004 80.336 26.136 80.336 26.256V26.904L80.192 43.86L87.32 43.932H89.012C89.156 43.932 89.312 43.944 89.48 43.968C89.648 43.968 89.816 43.98 89.984 44.004C90.176 44.028 90.344 44.052 90.488 44.076C90.632 44.1 90.776 44.136 90.92 44.184C91.184 44.256 91.4 44.376 91.568 44.544C91.832 44.784 92 45.024 92.072 45.264ZM99.558 34.356C99.558 35.028 99.558 35.784 99.558 36.624C99.582 37.464 99.594 38.34 99.594 39.252C99.594 40.14 99.594 41.028 99.594 41.916C99.594 42.78 99.582 43.584 99.558 44.328C99.534 44.688 99.498 45.084 99.45 45.516C99.402 45.924 99.306 46.308 99.162 46.668C99.018 47.028 98.79 47.328 98.478 47.568C98.19 47.784 97.794 47.88 97.29 47.856C96.546 47.808 96.006 47.484 95.67 46.884C95.358 46.284 95.178 45.444 95.13 44.364C95.13 43.812 95.118 43.176 95.094 42.456C95.094 41.736 95.082 41.004 95.058 40.26C95.058 39.516 95.058 38.796 95.058 38.1C95.058 37.38 95.058 36.732 95.058 36.156C95.058 35.82 95.046 35.412 95.022 34.932C95.022 34.452 95.034 33.96 95.058 33.456C95.082 32.952 95.142 32.472 95.238 32.016C95.334 31.536 95.49 31.14 95.706 30.828C95.874 30.636 96.114 30.492 96.426 30.396C96.738 30.276 97.062 30.216 97.398 30.216C97.758 30.216 98.094 30.276 98.406 30.396C98.742 30.516 98.982 30.684 99.126 30.9C99.222 31.044 99.294 31.248 99.342 31.512C99.39 31.776 99.426 32.076 99.45 32.412C99.498 32.724 99.522 33.06 99.522 33.42C99.546 33.756 99.558 34.068 99.558 34.356ZM98.19 27.084C97.446 27.276 96.822 27.204 96.318 26.868C95.838 26.508 95.538 25.98 95.418 25.284C95.322 24.78 95.358 24.336 95.526 23.952C95.694 23.568 95.946 23.28 96.282 23.088C96.618 22.872 97.002 22.776 97.434 22.8C97.866 22.824 98.298 22.992 98.73 23.304C99.138 23.592 99.426 23.928 99.594 24.312C99.786 24.696 99.846 25.068 99.774 25.428C99.726 25.788 99.57 26.124 99.306 26.436C99.042 26.724 98.67 26.94 98.19 27.084ZM113.053 32.772C113.461 32.892 113.725 33.12 113.845 33.456C113.965 33.768 114.001 34.104 113.953 34.464C113.809 35.208 113.401 35.664 112.729 35.832C112.345 35.928 111.949 35.976 111.541 35.976C111.157 35.976 110.761 35.988 110.353 36.012V44.328C110.353 44.904 110.317 45.492 110.245 46.092C110.245 46.308 110.185 46.536 110.065 46.776C110.017 46.896 109.981 46.968 109.957 46.992C109.957 47.04 109.933 47.112 109.885 47.208C109.741 47.472 109.549 47.688 109.309 47.856C108.781 48.144 108.217 48.216 107.617 48.072C107.257 48 106.981 47.88 106.789 47.712C106.573 47.544 106.417 47.34 106.321 47.1C106.273 46.98 106.237 46.86 106.213 46.74C106.189 46.62 106.153 46.5 106.105 46.38C106.081 46.26 106.057 46.152 106.033 46.056C106.033 45.936 106.033 45.84 106.033 45.768V43.68C106.033 42.432 106.033 41.136 106.033 39.792C106.057 38.448 106.069 37.152 106.069 35.904C105.517 35.88 104.941 35.868 104.341 35.868C103.765 35.844 103.345 35.7 103.081 35.436C102.937 35.292 102.841 35.112 102.793 34.896C102.745 34.656 102.721 34.416 102.721 34.176C102.745 33.936 102.793 33.72 102.865 33.528C102.937 33.312 103.033 33.156 103.153 33.06C103.465 32.772 103.741 32.616 103.981 32.592C104.245 32.544 104.569 32.508 104.953 32.484C105.001 32.484 105.157 32.484 105.421 32.484C105.709 32.46 105.889 32.448 105.961 32.448C105.985 31.632 106.009 30.816 106.033 30C106.057 29.184 106.129 28.44 106.249 27.768C106.393 27.072 106.597 26.472 106.861 25.968C107.149 25.44 107.581 25.044 108.157 24.78C108.853 24.468 109.645 24.276 110.533 24.204C111.421 24.132 112.225 24.24 112.945 24.528C113.281 24.648 113.605 24.888 113.917 25.248C114.253 25.608 114.409 26.004 114.385 26.436C114.361 26.868 114.277 27.264 114.133 27.624C113.989 27.984 113.677 28.224 113.197 28.344C112.981 28.392 112.753 28.416 112.513 28.416C112.297 28.392 112.069 28.38 111.829 28.38C111.589 28.38 111.361 28.416 111.145 28.488C110.953 28.536 110.785 28.644 110.641 28.812C110.521 28.956 110.437 29.148 110.389 29.388C110.365 29.628 110.341 29.88 110.317 30.144C110.293 30.408 110.281 30.672 110.281 30.936C110.305 31.176 110.317 31.38 110.317 31.548V32.448C110.869 32.496 111.373 32.532 111.829 32.556C112.309 32.58 112.717 32.652 113.053 32.772ZM128.22 43.068C128.508 42.996 128.796 42.948 129.084 42.924C129.396 42.9 129.672 42.936 129.912 43.032C130.176 43.128 130.392 43.296 130.56 43.536C130.728 43.752 130.812 44.064 130.812 44.472C130.812 44.76 130.74 45.036 130.596 45.3C130.452 45.564 130.272 45.804 130.056 46.02C129.84 46.236 129.6 46.428 129.336 46.596C129.072 46.74 128.82 46.86 128.58 46.956C127.884 47.268 127.08 47.508 126.168 47.676C125.28 47.844 124.356 47.904 123.396 47.856C122.1 47.808 120.852 47.556 119.652 47.1C118.476 46.62 117.552 45.84 116.88 44.76C116.256 43.704 115.884 42.528 115.764 41.232C115.644 39.936 115.704 38.712 115.944 37.56C116.208 36.168 116.652 35.04 117.276 34.176C117.924 33.288 118.692 32.58 119.58 32.052C120.66 31.428 121.872 31.104 123.216 31.08C124.56 31.056 125.844 31.32 127.068 31.872C127.884 32.232 128.616 32.724 129.264 33.348C129.912 33.948 130.404 34.68 130.74 35.544C130.836 35.76 130.908 36.024 130.956 36.336C131.028 36.648 131.076 36.984 131.1 37.344C131.124 37.68 131.124 38.016 131.1 38.352C131.076 38.688 131.016 38.988 130.92 39.252C130.776 39.684 130.596 40.02 130.38 40.26C130.164 40.5 129.888 40.68 129.552 40.8C129.216 40.92 128.808 41.004 128.328 41.052C127.872 41.076 127.32 41.1 126.672 41.124C126.096 41.148 125.556 41.16 125.052 41.16C124.548 41.16 124.032 41.16 123.504 41.16C122.976 41.136 122.424 41.124 121.848 41.124C121.296 41.1 120.672 41.076 119.976 41.052C119.904 41.532 119.964 41.952 120.156 42.312C120.372 42.648 120.66 42.936 121.02 43.176C121.38 43.392 121.788 43.56 122.244 43.68C122.7 43.8 123.144 43.872 123.576 43.896C124.392 43.944 125.172 43.884 125.916 43.716C126.66 43.524 127.428 43.308 128.22 43.068ZM126.672 36.084C126.216 35.556 125.736 35.172 125.232 34.932C124.848 34.764 124.44 34.692 124.008 34.716C123.6 34.716 123.204 34.776 122.82 34.896C122.124 35.064 121.536 35.424 121.056 35.976C121.008 36.024 120.924 36.144 120.804 36.336C120.684 36.504 120.564 36.684 120.444 36.876C120.348 37.068 120.276 37.248 120.228 37.416C120.18 37.584 120.204 37.668 120.3 37.668H127.356C127.332 37.332 127.272 37.056 127.176 36.84C127.08 36.6 126.912 36.348 126.672 36.084ZM162.406 39.432C162.406 40.152 162.37 40.884 162.298 41.628C162.226 42.348 162.082 43.056 161.866 43.752C161.65 44.424 161.326 45.072 160.894 45.696C160.462 46.296 159.874 46.824 159.13 47.28C158.77 47.52 158.338 47.724 157.834 47.892C157.354 48.036 156.838 48.156 156.286 48.252C155.758 48.372 155.23 48.444 154.702 48.468C154.174 48.516 153.682 48.528 153.226 48.504C151.066 48.432 149.314 47.916 147.97 46.956C146.65 45.972 145.63 44.76 144.91 43.32C144.214 41.88 143.758 40.32 143.542 38.64C143.35 36.936 143.314 35.316 143.434 33.78C143.506 32.868 143.662 31.884 143.902 30.828C144.166 29.772 144.538 28.752 145.018 27.768C145.522 26.784 146.134 25.896 146.854 25.104C147.598 24.312 148.474 23.712 149.482 23.304C150.418 22.92 151.438 22.68 152.542 22.584C153.67 22.464 154.774 22.5 155.854 22.692C156.958 22.884 157.978 23.232 158.914 23.736C159.874 24.24 160.63 24.912 161.182 25.752C161.566 26.376 161.866 27.132 162.082 28.02C162.298 28.908 162.334 29.76 162.19 30.576C162.07 31.296 161.818 31.8 161.434 32.088C161.05 32.352 160.63 32.46 160.174 32.412C159.718 32.34 159.274 32.148 158.842 31.836C158.434 31.5 158.158 31.08 158.014 30.576C157.846 30.024 157.642 29.52 157.402 29.064C157.162 28.584 156.79 28.188 156.286 27.876C155.71 27.516 155.098 27.312 154.45 27.264C153.826 27.216 153.214 27.288 152.614 27.48C152.038 27.672 151.486 27.972 150.958 28.38C150.454 28.788 150.034 29.256 149.698 29.784C149.29 30.384 148.978 31.044 148.762 31.764C148.546 32.46 148.39 33.192 148.294 33.96C148.198 34.704 148.162 35.46 148.186 36.228C148.234 36.972 148.33 37.692 148.474 38.388C148.738 39.564 149.146 40.668 149.698 41.7C149.914 42.084 150.202 42.432 150.562 42.744C150.946 43.032 151.366 43.272 151.822 43.464C152.278 43.632 152.758 43.74 153.262 43.788C153.766 43.836 154.246 43.8 154.702 43.68C155.35 43.512 155.878 43.296 156.286 43.032C156.694 42.744 157.018 42.408 157.258 42.024C157.498 41.64 157.654 41.22 157.726 40.764C157.822 40.308 157.87 39.828 157.87 39.324V39.288C157.558 39.288 157.282 39.288 157.042 39.288C156.802 39.264 156.622 39.252 156.502 39.252C155.974 39.252 155.458 39.156 154.954 38.964C154.522 38.82 154.198 38.592 153.982 38.28C153.742 38.016 153.622 37.692 153.622 37.308C153.622 37.164 153.622 37.032 153.622 36.912C153.646 36.768 153.67 36.624 153.694 36.48C153.766 36.288 153.922 36.048 154.162 35.76C154.306 35.64 154.534 35.544 154.846 35.472C154.99 35.424 155.134 35.388 155.278 35.364C155.422 35.316 155.59 35.28 155.782 35.256C155.926 35.232 156.082 35.22 156.25 35.22C156.418 35.22 156.586 35.22 156.754 35.22H160.03C160.294 35.196 160.594 35.232 160.93 35.328C161.29 35.4 161.566 35.52 161.758 35.688C161.83 35.784 161.902 35.88 161.974 35.976C162.046 36.072 162.106 36.18 162.154 36.3C162.25 36.564 162.31 36.828 162.334 37.092C162.358 37.236 162.37 37.392 162.37 37.56C162.394 37.704 162.406 37.836 162.406 37.956V39.432ZM169.943 31.728C170.735 31.344 171.563 31.068 172.427 30.9C173.291 30.732 174.143 30.696 174.983 30.792C175.847 30.888 176.675 31.116 177.467 31.476C178.283 31.836 179.027 32.34 179.699 32.988C180.251 33.54 180.731 34.212 181.139 35.004C181.547 35.772 181.847 36.528 182.039 37.272C182.447 38.592 182.507 39.924 182.219 41.268C181.931 42.612 181.439 43.86 180.743 45.012C180.407 45.54 179.987 46.02 179.483 46.452C179.003 46.86 178.487 47.196 177.935 47.46C177.215 47.796 176.435 48.024 175.595 48.144C174.755 48.288 173.939 48.324 173.147 48.252C171.707 48.18 170.435 47.82 169.331 47.172C168.251 46.524 167.375 45.696 166.703 44.688C166.055 43.68 165.623 42.54 165.407 41.268C165.215 39.972 165.299 38.652 165.659 37.308C166.043 35.868 166.595 34.704 167.315 33.816C168.059 32.904 168.935 32.208 169.943 31.728ZM171.023 36.552C170.663 36.888 170.387 37.308 170.195 37.812C170.003 38.316 169.883 38.844 169.835 39.396C169.787 39.924 169.823 40.464 169.943 41.016C170.087 41.544 170.303 42.024 170.591 42.456C170.831 42.816 171.263 43.116 171.887 43.356C172.511 43.596 173.159 43.74 173.831 43.788C174.599 43.836 175.271 43.632 175.847 43.176C176.423 42.696 176.855 42.108 177.143 41.412C177.455 40.716 177.599 39.96 177.575 39.144C177.551 38.328 177.335 37.584 176.927 36.912C176.639 36.432 176.231 36.084 175.703 35.868C175.199 35.628 174.659 35.508 174.083 35.508C173.531 35.484 172.979 35.568 172.427 35.76C171.875 35.928 171.407 36.192 171.023 36.552ZM189.48 32.844C190.2 32.484 190.956 32.232 191.748 32.088C192.54 31.92 193.32 31.884 194.088 31.98C194.88 32.052 195.636 32.256 196.356 32.592C197.076 32.904 197.748 33.36 198.372 33.96C198.996 34.584 199.476 35.268 199.812 36.012C200.148 36.756 200.388 37.584 200.532 38.496C200.628 39.12 200.784 39.696 201 40.224C201.216 40.752 201.444 41.28 201.684 41.808C201.948 42.336 202.188 42.864 202.404 43.392C202.644 43.92 202.836 44.472 202.98 45.048C203.1 45.6 203.052 46.14 202.836 46.668C202.644 47.172 202.236 47.484 201.612 47.604C201.252 47.676 200.904 47.652 200.568 47.532C200.256 47.388 199.968 47.196 199.704 46.956C199.44 46.692 199.2 46.416 198.984 46.128C198.792 45.816 198.612 45.528 198.444 45.264C197.892 45.984 197.292 46.548 196.644 46.956C195.996 47.34 195.216 47.592 194.304 47.712C193.536 47.808 192.804 47.832 192.108 47.784C191.412 47.736 190.668 47.604 189.876 47.388C188.844 47.124 187.992 46.668 187.32 46.02C186.672 45.348 186.168 44.58 185.808 43.716C185.472 42.828 185.292 41.88 185.268 40.872C185.244 39.864 185.364 38.868 185.628 37.884C185.964 36.588 186.468 35.532 187.14 34.716C187.812 33.9 188.592 33.276 189.48 32.844ZM190.38 37.056C190.044 37.392 189.78 37.788 189.588 38.244C189.396 38.7 189.276 39.18 189.228 39.684C189.204 40.188 189.252 40.692 189.372 41.196C189.492 41.7 189.684 42.144 189.948 42.528C190.188 42.864 190.596 43.152 191.172 43.392C191.748 43.608 192.348 43.74 192.972 43.788C193.692 43.836 194.316 43.644 194.844 43.212C195.396 42.78 195.804 42.24 196.068 41.592C196.356 40.92 196.488 40.212 196.464 39.468C196.44 38.7 196.236 38.004 195.852 37.38C195.564 36.924 195.18 36.588 194.7 36.372C194.244 36.156 193.752 36.048 193.224 36.048C192.696 36.024 192.168 36.108 191.64 36.3C191.136 36.468 190.716 36.72 190.38 37.056ZM210.763 45.12C210.739 45.24 210.715 45.36 210.691 45.48C210.691 45.576 210.691 45.684 210.691 45.804L210.475 46.56C210.427 46.656 210.391 46.716 210.367 46.74L210.259 46.956C210.139 47.22 209.923 47.436 209.611 47.604C209.035 47.892 208.423 47.964 207.775 47.82C207.367 47.772 207.043 47.652 206.803 47.46C206.563 47.292 206.395 47.088 206.299 46.848C206.203 46.608 206.131 46.368 206.083 46.128C206.011 45.888 205.975 45.672 205.975 45.48V25.32C205.975 25.152 205.975 25.008 205.975 24.888C205.999 24.744 206.023 24.612 206.047 24.492C206.071 24.324 206.095 24.18 206.119 24.06C206.167 23.94 206.215 23.808 206.263 23.664C206.335 23.424 206.467 23.232 206.659 23.088C206.947 22.872 207.223 22.752 207.487 22.728C207.655 22.68 207.811 22.656 207.955 22.656C208.099 22.632 208.267 22.62 208.459 22.62C208.795 22.62 209.179 22.716 209.611 22.908C209.947 23.1 210.187 23.364 210.331 23.7C210.571 24.18 210.691 24.624 210.691 25.032C210.715 25.272 210.727 25.632 210.727 26.112C210.751 26.592 210.763 26.952 210.763 27.192V27.336C210.811 28.104 210.835 28.848 210.835 29.568C210.835 30.264 210.823 31.032 210.799 31.872C210.799 32.688 210.787 33.48 210.763 34.248C210.763 34.992 210.763 35.736 210.763 36.48V44.04C210.763 44.136 210.763 44.232 210.763 44.328C210.787 44.4 210.799 44.484 210.799 44.58C210.799 44.82 210.787 45 210.763 45.12ZM222.314 41.664C221.858 41.376 221.342 41.148 220.766 40.98C220.214 40.812 219.638 40.656 219.038 40.512C218.462 40.368 217.898 40.212 217.346 40.044C216.794 39.852 216.29 39.588 215.834 39.252C214.85 38.508 214.274 37.596 214.106 36.516C213.962 35.412 214.202 34.308 214.826 33.204C215.162 32.628 215.606 32.16 216.158 31.8C216.71 31.416 217.31 31.128 217.958 30.936C218.63 30.72 219.314 30.6 220.01 30.576C220.706 30.552 221.366 30.588 221.99 30.684C222.398 30.756 222.83 30.864 223.286 31.008C223.742 31.128 224.162 31.296 224.546 31.512C224.954 31.728 225.314 32.004 225.626 32.34C225.962 32.652 226.202 33.048 226.346 33.528C226.442 33.84 226.454 34.14 226.382 34.428C226.334 34.716 226.214 34.956 226.022 35.148C225.854 35.34 225.626 35.484 225.338 35.58C225.074 35.676 224.786 35.7 224.474 35.652C224.114 35.58 223.778 35.472 223.466 35.328C223.154 35.184 222.842 35.028 222.53 34.86C222.218 34.692 221.894 34.548 221.558 34.428C221.246 34.308 220.91 34.248 220.55 34.248C219.998 34.224 219.542 34.32 219.182 34.536C218.822 34.752 218.57 35.016 218.426 35.328C218.306 35.64 218.318 35.976 218.462 36.336C218.63 36.696 218.966 37.008 219.47 37.272C219.926 37.512 220.43 37.704 220.982 37.848C221.534 37.992 222.074 38.136 222.602 38.28C223.154 38.424 223.682 38.592 224.186 38.784C224.714 38.976 225.182 39.24 225.59 39.576C226.382 40.224 226.862 40.98 227.03 41.844C227.222 42.708 227.174 43.56 226.886 44.4C226.598 45.24 226.094 45.984 225.374 46.632C224.678 47.28 223.85 47.712 222.89 47.928C222.194 48.072 221.438 48.144 220.622 48.144C219.83 48.144 219.038 48.06 218.246 47.892C217.478 47.724 216.734 47.46 216.014 47.1C215.318 46.74 214.73 46.284 214.25 45.732C213.914 45.348 213.734 44.916 213.71 44.436C213.71 43.932 213.806 43.5 213.998 43.14C214.214 42.756 214.514 42.492 214.898 42.348C215.282 42.204 215.714 42.288 216.194 42.6C216.578 42.864 217.034 43.128 217.562 43.392C218.09 43.632 218.618 43.824 219.146 43.968C219.674 44.112 220.178 44.184 220.658 44.184C221.162 44.184 221.594 44.076 221.954 43.86C222.482 43.524 222.758 43.14 222.782 42.708C222.806 42.252 222.65 41.904 222.314 41.664Z" fill="black"/>
<path d="M34.66 16.56C32.14 16.56 29.34 17.94 26.26 20.7C23.22 23.46 20.62 26.92 18.46 31.08C16.3 35.2 15.22 39.04 15.22 42.6C15.22 44.04 15.68 45.28 16.6 46.32C17.52 47.32 18.6 47.82 19.84 47.82C21.76 47.82 24 46.78 26.56 44.7C29.16 42.58 31.56 39.86 33.76 36.54C31.52 37.14 29.86 37.44 28.78 37.44C27.7 37.44 26.78 37.16 26.02 36.6C25.26 36 24.88 35.44 24.88 34.92C24.88 34.28 25.74 33.78 27.46 33.42C29.18 33.02 31.34 32.82 33.94 32.82C35.38 32.82 36.54 33.44 37.42 34.68C38.34 35.88 38.8 37.3 38.8 38.94C38.8 40.54 37.8 44.34 35.8 50.34C33.8 56.34 32.28 59.34 31.24 59.34C30.24 59.34 29.74 58.76 29.74 57.6C29.74 56.48 30.02 54.96 30.58 53.04C31.18 51.12 31.8 49.16 32.44 47.16C33.08 45.12 33.6 43.46 34 42.18C32.04 45.5 29.82 48.14 27.34 50.1C24.86 52.02 22.44 52.98 20.08 52.98C17.76 52.98 15.46 51.9 13.18 49.74C10.9 47.54 9.76 45.14 9.76 42.54C9.76 38.5 11.04 34 13.6 29.04C16.16 24.08 19.38 19.84 23.26 16.32C27.14 12.76 30.78 10.98 34.18 10.98C35.3 10.98 36.4 11.66 37.48 13.02C38.56 14.34 39.1 15.42 39.1 16.26C39.1 17.06 38.88 17.46 38.44 17.46C38.32 17.46 37.88 17.32 37.12 17.04C36.36 16.72 35.54 16.56 34.66 16.56Z" fill="#07B193"/>
<path fill-rule="evenodd" clip-rule="evenodd" d="M24.0353 33.2954L47.1342 21.7976L52.8092 23.8701L64.5636 18.638C66.294 17.6918 64.4148 16.4998 63.6548 16.3505L59.4794 15.6299C59.3745 14.5439 58.9716 13.5983 58.0905 12.8769L59.7723 7.95802C59.9691 7.60319 59.2585 6.44188 58.5214 6.61251L58.5209 6.61299L46.7371 13.8166L45.8905 19.355C35.9699 24.1518 32.6457 25.8515 29.3214 27.5514C27.5199 28.4725 25.7184 29.3937 22.8671 30.8077L24.0353 33.2954ZM56.6675 9.08714C56.6577 9.08124 56.646 9.07726 56.6306 9.08819L56.6306 9.08814L56.6304 9.0879C56.5562 9.13992 56.4281 9.36556 56.3395 9.52185C56.2995 9.59225 56.2675 9.64858 56.2521 9.66863C56.1505 9.80027 56.0026 10.234 55.973 10.4495C55.9358 10.7204 54.787 11.9154 54.531 12.1631C54.373 12.3159 53.8912 12.5958 53.7196 12.4125C53.5621 12.2444 53.7386 11.8337 53.8715 11.5246C53.981 11.27 54.0609 11.0843 53.8998 11.1599C53.808 11.203 53.7349 11.2627 53.6639 11.3207C53.5397 11.4221 53.4219 11.5183 53.2216 11.5112C53.1887 11.51 52.869 11.4705 52.7892 11.4428L52.7849 11.4449C52.7745 11.4413 52.7731 11.4375 52.7743 11.4336C52.5921 11.6166 52.4595 11.8557 52.3257 12.0972C52.2062 12.3128 52.0857 12.5302 51.928 12.7111C51.7895 12.87 51.6387 13.0016 51.4871 13.1338C51.4289 13.1845 51.3706 13.2354 51.3129 13.2878C50.8279 13.729 50.3666 14.9956 50.2514 15.8344C50.2424 15.8997 50.2196 16.0319 50.1921 16.1902C50.1192 16.6117 50.0141 17.2186 50.0538 17.2433C50.1231 17.2864 50.2285 17.2204 50.3024 17.1741C50.3244 17.1603 50.3436 17.1483 50.3582 17.1414C50.6472 17.0057 50.9196 16.769 51.0256 16.3921C51.0373 16.3505 51.0417 16.3043 51.0462 16.2582C51.0524 16.193 51.0587 16.128 51.0854 16.0761C51.1602 15.9306 51.2809 15.8844 51.4065 15.8364C51.4448 15.8217 51.4835 15.8069 51.5216 15.789C51.5942 15.7549 51.6614 15.725 51.7238 15.6971C52.1535 15.5055 52.3602 15.4133 52.5883 14.7535C52.6053 14.7042 52.6364 14.6679 52.667 14.6321C52.699 14.5947 52.7306 14.5578 52.7448 14.5072C52.7696 14.419 52.8546 14.3164 52.9192 14.2385C52.9366 14.2175 52.9525 14.1982 52.9654 14.1816C53.0088 14.1254 53.0327 14.053 53.0563 13.9815C53.0724 13.9328 53.0884 13.8846 53.1102 13.8421C53.3717 13.3339 53.446 13.6496 53.5258 13.9879C53.5808 14.2216 53.6384 14.4661 53.762 14.4573C53.8163 14.4534 53.936 14.5305 54.0543 14.6068C54.2047 14.7038 54.3531 14.7994 54.3632 14.7261C54.3669 14.6984 54.4023 14.6429 54.4396 14.5842C54.4648 14.5445 54.491 14.5033 54.509 14.4684C54.5382 14.4116 54.553 14.3365 54.5678 14.2612C54.5828 14.1852 54.5978 14.1089 54.6277 14.0507C54.7135 13.884 54.8948 13.8379 55.0761 13.7919C55.2353 13.7514 55.3945 13.711 55.4888 13.5888C55.5842 13.4652 55.7013 13.355 55.8196 13.2438C55.9399 13.1307 56.0614 13.0165 56.1621 12.886C56.1936 12.8451 56.1969 12.7709 56.2001 12.6969C56.2027 12.6379 56.2053 12.5789 56.2223 12.537C56.2771 12.4019 56.3653 12.3123 56.4536 12.2227C56.5418 12.1331 56.6301 12.0435 56.6849 11.9084C56.7126 11.8402 56.7204 11.7635 56.7281 11.6877C56.7349 11.6202 56.7417 11.5534 56.7623 11.4937C56.8034 11.3748 56.8682 11.2842 56.9306 11.1971C57.0079 11.0889 57.0816 10.986 57.1015 10.8409C57.1064 10.8052 57.0742 10.7276 57.0463 10.6603C57.0316 10.625 57.0182 10.5926 57.0118 10.5705C57.0092 10.5613 57.0054 10.5373 57.0009 10.5085C56.9914 10.4487 56.9787 10.3686 56.967 10.3613C56.9273 10.3366 56.8773 10.3783 56.8302 10.4176C56.793 10.4486 56.7577 10.4781 56.7309 10.4721C56.7122 10.468 56.572 10.2291 56.5773 10.1905C56.5984 10.0368 56.6637 9.89377 56.7242 9.77609C56.7514 9.72331 56.7157 9.59247 56.6838 9.47523C56.6611 9.39173 56.6403 9.31513 56.6453 9.27852C56.6456 9.27663 56.6474 9.27042 56.65 9.26132C56.6628 9.21707 56.6954 9.10446 56.6675 9.08714ZM50.0548 12.8652C49.9628 12.8937 49.8581 12.9263 49.7818 12.9707L49.7816 12.9708C49.7394 12.9953 49.7052 13.0224 49.6882 13.0558C49.5869 13.2527 49.3411 13.5808 49.0803 13.9292C48.6943 14.4446 48.2753 15.0042 48.2417 15.2485C48.2276 15.3509 48.0627 15.2596 47.9809 15.1818C48.5205 14.4285 47.3882 14.3036 47.1393 14.7874C47.1153 14.834 47.1115 14.8973 47.1079 14.9595C47.1049 15.0099 47.1019 15.0597 47.0883 15.0992C46.9836 15.4021 46.8372 15.7098 46.7026 15.9713C46.6622 16.0498 46.6656 16.1608 46.6691 16.2742C46.672 16.3691 46.6749 16.4656 46.6523 16.546C46.6249 16.6433 46.6161 16.7729 46.6073 16.9009C46.5964 17.0601 46.5856 17.2169 46.5397 17.3062C46.4815 17.4195 46.1133 18.5537 46.45 18.7631C46.9323 19.0628 47.4963 18.0214 47.8742 17.3236C47.9971 17.0968 48.1002 16.9062 48.1746 16.8099C48.2224 16.7478 48.5513 16.8294 48.6351 16.8815C48.7678 16.964 48.9001 16.5901 48.907 16.54C48.926 16.4015 49.0822 16.492 49.2286 16.5768C49.3577 16.6517 49.4792 16.7221 49.4922 16.6271C49.5188 16.4337 49.6329 16.2173 49.7488 15.9976C49.8895 15.7307 50.0329 15.4588 50.0255 15.2169C50.0218 15.0986 50.0542 14.9822 50.0857 14.8689C50.1197 14.7466 50.1527 14.6279 50.1383 14.5141C50.1265 14.4202 50.1148 14.0507 50.1445 13.993C50.2845 13.7208 50.3828 13.5396 50.5568 13.3141C50.6049 13.2517 50.6223 12.8013 50.4912 12.7198C50.4349 12.6848 50.3457 12.7354 50.2709 12.7778C50.2484 12.7906 50.2272 12.8026 50.2086 12.8114C50.1709 12.8291 50.1157 12.8463 50.0548 12.8652ZM57.5329 15.1461C57.2876 14.8608 57.2291 14.4252 57.2281 14.4174L55.9982 15.0031C56.1149 15.3236 56.211 15.5541 56.276 15.7101C56.2889 15.7409 56.3005 15.7688 56.3109 15.7939C57.056 15.4207 57.5508 15.1668 57.5329 15.1461ZM53.4457 16.5225C53.3363 16.4853 53.2357 16.4302 53.1438 16.3682L53.1437 16.3682L53.1436 16.3679L49.7819 17.9713C49.8731 18.3668 49.8192 18.7661 49.5136 19.0022C49.5077 19.0066 49.5015 19.0107 49.4953 19.0148C49.4892 19.0189 49.483 19.0229 49.4773 19.0273C49.3882 19.0908 49.2964 19.1484 49.197 19.1918L49.1751 19.202C49.1711 19.2131 49.1656 19.2227 49.16 19.2322C49.1554 19.2399 49.1509 19.2477 49.1472 19.2563C51.3308 18.2135 53.1732 17.3321 54.5557 16.6588C54.5296 16.6579 54.5094 16.6548 54.4925 16.6522C54.4848 16.651 54.4777 16.6499 54.4711 16.6492C54.4626 16.6471 54.4534 16.6482 54.4446 16.6492C54.441 16.6496 54.4376 16.65 54.4343 16.6502C54.4287 16.6502 54.4265 16.6491 54.4224 16.6477L54.4181 16.6497C54.4159 16.6499 54.4143 16.6482 54.413 16.6467C54.412 16.6457 54.4112 16.6448 54.4106 16.6451L54.4062 16.6472C54.3842 16.6497 54.3631 16.6544 54.3419 16.6591C54.3244 16.6629 54.3068 16.6668 54.2886 16.6695C54.1423 16.6821 53.9897 16.6727 53.832 16.629C53.8033 16.6216 53.7745 16.6144 53.7457 16.6072C53.646 16.5823 53.5458 16.5572 53.4457 16.5225ZM57.5549 16.4992C57.5073 16.5138 57.4582 16.5289 57.4061 16.5124C57.0389 16.9287 57.3833 17.0862 57.7079 17.2345C57.7958 17.2747 57.8822 17.3142 57.9526 17.3579C58.0349 17.4091 58.0739 17.4756 58.1096 17.5366C58.1602 17.6229 58.2043 17.6982 58.3551 17.7036C58.3995 17.7051 58.3785 17.6473 58.3599 17.5959C58.3498 17.5682 58.3404 17.5423 58.3423 17.5286C58.3513 17.4631 58.5859 17.1742 58.6777 17.2313C58.9349 17.3912 59.6653 17.6753 59.392 17.0933C59.3415 16.9858 59.1707 16.9323 58.9894 16.8753C58.8202 16.8223 58.6418 16.7663 58.5433 16.6611C58.4957 16.6102 58.3792 16.6238 58.2705 16.6365C58.2012 16.6446 58.135 16.6524 58.0918 16.6428C57.9748 16.6169 57.794 16.5483 57.7148 16.4991C57.6621 16.4664 57.6095 16.4825 57.5549 16.4992ZM54.1826 18.3566C53.8252 18.4981 53.4031 18.6652 53.092 18.8262L53.092 18.8262C52.9228 18.9138 52.7854 19.0005 52.7094 19.0799C52.6661 19.1252 52.6214 19.2081 52.5754 19.2935C52.5049 19.4244 52.4314 19.5608 52.3551 19.5753C52.4445 19.694 52.584 19.7171 52.7205 19.7396C52.8143 19.7551 52.9067 19.7703 52.9805 19.8162C53.0276 19.8455 53.0819 19.8977 53.1403 19.9538C53.2406 20.0502 53.353 20.1582 53.462 20.1823C53.6054 20.214 53.8043 20.28 54.0242 20.3529C54.5587 20.5301 55.2167 20.7484 55.5009 20.6149C55.6282 20.5552 55.7054 20.442 55.7517 20.3079C55.8152 20.1242 55.9468 20.0609 56.108 20.0666C56.125 20.0672 56.1625 20.0869 56.2047 20.1091C56.2841 20.1507 56.3799 20.2011 56.387 20.1494C56.3997 20.0568 56.2282 19.9473 56.0189 19.8138C55.7394 19.6355 55.3928 19.4143 55.3281 19.1332C55.2682 18.8724 55.7834 18.9606 55.9098 19.0081C56.4695 19.2188 57.9238 19.592 57.8931 18.595C57.8785 18.1203 57.6064 18.0231 57.3185 17.9202C57.2327 17.8896 57.1455 17.8584 57.0633 17.8167C56.9753 17.772 56.8817 17.6952 56.7891 17.6193C56.6679 17.5199 56.5485 17.422 56.4458 17.3993C56.2276 17.3511 55.4724 17.7462 55.0216 17.9822C54.899 18.0463 54.799 18.0986 54.7383 18.1271C54.6086 18.188 54.4085 18.2672 54.1826 18.3566ZM49.4522 20.6671C49.5098 20.7029 49.5802 20.7675 49.6548 20.8359ZM49.6548 20.8359C49.7646 20.9366 49.8834 21.0457 49.984 21.0835ZM49.984 21.0835C50.0261 21.0994 50.0741 21.1087 50.1241 21.1184ZM50.1241 21.1184C50.2164 21.1363 50.3152 21.1554 50.3948 21.2196ZM50.3948 21.2196C50.4899 21.2964 50.5614 21.4058 50.6339 21.5168ZM50.6339 21.5168C50.69 21.6026 50.7466 21.6893 50.8152 21.7625ZM50.8152 21.7625C50.8486 21.7982 50.902 21.8374 50.96 21.8799ZM50.96 21.8799C51.0835 21.9704 51.2275 22.0759 51.2425 22.1952ZM51.2425 22.1952C51.3437 22.9982 50.2917 22.5253 49.6141 22.2206ZM49.6141 22.2206C49.4077 22.1278 49.236 22.0506 49.1423 22.0299ZM49.1423 22.0299C48.8793 21.9717 48.5549 21.8795 48.3199 21.7334ZM48.3199 21.7334C48.2625 21.6977 48.2249 21.6038 48.1881 21.5122ZM48.1881 21.5122C48.1858 21.5062 48.1834 21.5002 48.181 21.4943ZM48.1591 21.5046C48.1635 21.5073 48.1703 21.5041 48.181 21.4943C48.1597 21.4415 48.1374 21.3894 48.1145 21.3528C48.124 21.3729 48.1266 21.3981 48.1292 21.4225C48.1329 21.4574 48.1365 21.4905 48.1591 21.5046ZM48.181 21.4943C48.2487 21.4334 48.4226 21.1644 48.4283 21.1232ZM48.4283 21.1232C48.429 21.1184 48.4908 21.0837 48.587 21.0406ZM48.587 21.0406L48.5869 21.0405ZM51.2403 19.9177C51.1191 19.8907 50.9859 19.9252 50.8537 19.9923L50.8537 19.9923C50.6666 20.0874 50.4834 20.242 50.3536 20.3516C50.3306 20.3711 50.3092 20.3891 50.2898 20.4052C50.2818 20.3737 50.3372 20.6857 50.4357 20.7726C50.4805 20.8122 50.5287 20.8058 50.5808 20.7989C50.6259 20.793 50.6739 20.7867 50.7251 20.8094C50.745 20.8183 50.7651 20.8272 50.7854 20.8363C51.4636 21.1385 52.3427 21.5303 52.9738 21.234C52.996 21.2235 53.0305 21.2119 53.0703 21.1985C53.2028 21.1538 53.3932 21.0896 53.3801 20.9856C53.3738 20.9358 52.7409 20.6248 52.6568 20.5932C52.585 20.5662 52.4852 20.4637 52.389 20.365C52.2867 20.26 52.1884 20.1591 52.1318 20.1571C51.9453 20.1504 51.7579 20.0848 51.5748 20.0208C51.4611 19.981 51.3492 19.9418 51.2403 19.9177Z" fill="#07B193"/>
</svg>
